<?xml version="1.0" encoding="UTF-8" standalone="no"?>
<!DOCTYPE svg PUBLIC "-//W3C//DTD SVG 1.1//EN"
 "http://www.w3.org/Graphics/SVG/1.1/DTD/svg11.dtd">
<!-- Generated by graphviz version 2.40.1 (20161225.0304)
 -->
<!-- Title: G Pages: 1 -->
<svg width="220pt" height="442pt"
 viewBox="0.00 0.00 220.08 442.00" xmlns="http://www.w3.org/2000/svg" xmlns:xlink="http://www.w3.org/1999/xlink">
<g id="graph0" class="graph" transform="scale(1 1) rotate(0) translate(4 438)">
<title>G</title>
<polygon fill="#ffffff" stroke="transparent" points="-4,4 -4,-438 216.082,-438 216.082,4 -4,4"/>
<!-- A0 -->
<g id="node1" class="node">
<title>A0</title>
<path fill="none" stroke="#000000" d="M89.924,-434C89.924,-434 25.89,-434 25.89,-434 19.89,-434 13.89,-428 13.89,-422 13.89,-422 13.89,-410 13.89,-410 13.89,-404 19.89,-398 25.89,-398 25.89,-398 89.924,-398 89.924,-398 95.924,-398 101.924,-404 101.924,-410 101.924,-410 101.924,-422 101.924,-422 101.924,-428 95.924,-434 89.924,-434"/>
<text text-anchor="middle" x="57.907" y="-413" font-family="Helvetica,sans-Serif" font-size="10.00" fill="#000000">{Server Start}</text>
</g>
<!-- A1 -->
<g id="node2" class="node">
<title>A1</title>
<path fill="none" stroke="#000000" d="M91.1982,-361C91.1982,-361 24.6158,-361 24.6158,-361 18.6158,-361 12.6158,-355 12.6158,-349 12.6158,-349 12.6158,-337 12.6158,-337 12.6158,-331 18.6158,-325 24.6158,-325 24.6158,-325 91.1982,-325 91.1982,-325 97.1982,-325 103.1982,-331 103.1982,-337 103.1982,-337 103.1982,-349 103.1982,-349 103.1982,-355 97.1982,-361 91.1982,-361"/>
<text text-anchor="middle" x="57.907" y="-346" font-family="Helvetica,sans-Serif" font-size="10.00" fill="#000000">{server socket</text>
<text text-anchor="middle" x="57.907" y="-334" font-family="Helvetica,sans-Serif" font-size="10.00" fill="#000000">create}</text>
</g>
<!-- A0&#45;&gt;A1 -->
<g id="edge1" class="edge">
<title>A0&#45;&gt;A1</title>
<path fill="none" stroke="#000000" d="M57.907,-397.9551C57.907,-389.8828 57.907,-380.1764 57.907,-371.1817"/>
<polygon fill="#000000" stroke="#000000" points="57.907,-361.0904 62.4071,-371.0903 57.907,-366.0904 57.9071,-371.0904 57.9071,-371.0904 57.9071,-371.0904 57.907,-366.0904 53.4071,-371.0904 57.907,-361.0904 57.907,-361.0904"/>
</g>
<!-- A2 -->
<g id="node3" class="node">
<title>A2</title>
<path fill="none" stroke="#000000" d="M91.1644,-277C91.1644,-277 24.6496,-277 24.6496,-277 18.6496,-277 12.6496,-271 12.6496,-265 12.6496,-265 12.6496,-253 12.6496,-253 12.6496,-247 18.6496,-241 24.6496,-241 24.6496,-241 91.1644,-241 91.1644,-241 97.1644,-241 103.1644,-247 103.1644,-253 103.1644,-253 103.1644,-265 103.1644,-265 103.1644,-271 97.1644,-277 91.1644,-277"/>
<text text-anchor="middle" x="57.907" y="-256" font-family="Helvetica,sans-Serif" font-size="10.00" fill="#000000">{bind %:5555}</text>
</g>
<!-- A1&#45;&gt;A2 -->
<g id="edge2" class="edge">
<title>A1&#45;&gt;A2</title>
<path fill="none" stroke="#000000" d="M57.907,-324.7733C57.907,-313.8758 57.907,-299.7946 57.907,-287.4587"/>
<polygon fill="#000000" stroke="#000000" points="57.907,-277.1912 62.4071,-287.1911 57.907,-282.1912 57.9071,-287.1912 57.9071,-287.1912 57.9071,-287.1912 57.907,-282.1912 53.4071,-287.1912 57.907,-277.1912 57.907,-277.1912"/>
<text text-anchor="middle" x="78.745" y="-298" font-family="Helvetica,sans-Serif" font-size="10.00" fill="#000000">[success]</text>
</g>
<!-- A3 -->
<g id="node4" class="node">
<title>A3</title>
<path fill="none" stroke="#000000" d="M81.8171,-193C81.8171,-193 33.9969,-193 33.9969,-193 27.9969,-193 21.9969,-187 21.9969,-181 21.9969,-181 21.9969,-169 21.9969,-169 21.9969,-163 27.9969,-157 33.9969,-157 33.9969,-157 81.8171,-157 81.8171,-157 87.8171,-157 93.8171,-163 93.8171,-169 93.8171,-169 93.8171,-181 93.8171,-181 93.8171,-187 87.8171,-193 81.8171,-193"/>
<text text-anchor="middle" x="57.907" y="-172" font-family="Helvetica,sans-Serif" font-size="10.00" fill="#000000">{listen 10}</text>
</g>
<!-- A2&#45;&gt;A3 -->
<g id="edge3" class="edge">
<title>A2&#45;&gt;A3</title>
<path fill="none" stroke="#000000" d="M57.907,-240.7733C57.907,-229.8758 57.907,-215.7946 57.907,-203.4587"/>
<polygon fill="#000000" stroke="#000000" points="57.907,-193.1912 62.4071,-203.1911 57.907,-198.1912 57.9071,-203.1912 57.9071,-203.1912 57.9071,-203.1912 57.907,-198.1912 53.4071,-203.1912 57.907,-193.1912 57.907,-193.1912"/>
<text text-anchor="middle" x="78.745" y="-214" font-family="Helvetica,sans-Serif" font-size="10.00" fill="#000000">[success]</text>
</g>
<!-- A4 -->
<g id="node5" class="node">
<title>A4</title>
<path fill="none" stroke="#000000" d="M103.7211,-109C103.7211,-109 12.0929,-109 12.0929,-109 6.0929,-109 .0929,-103 .0929,-97 .0929,-97 .0929,-85 .0929,-85 .0929,-79 6.0929,-73 12.0929,-73 12.0929,-73 103.7211,-73 103.7211,-73 109.7211,-73 115.7211,-79 115.7211,-85 115.7211,-85 115.7211,-97 115.7211,-97 115.7211,-103 109.7211,-109 103.7211,-109"/>
<text text-anchor="middle" x="57.907" y="-94" font-family="Helvetica,sans-Serif" font-size="10.00" fill="#000000">{waiting for</text>
<text text-anchor="middle" x="57.907" y="-82" font-family="Helvetica,sans-Serif" font-size="10.00" fill="#000000">connection request}</text>
</g>
<!-- A3&#45;&gt;A4 -->
<g id="edge4" class="edge">
<title>A3&#45;&gt;A4</title>
<path fill="none" stroke="#000000" d="M57.907,-156.7733C57.907,-145.8758 57.907,-131.7946 57.907,-119.4587"/>
<polygon fill="#000000" stroke="#000000" points="57.907,-109.1912 62.4071,-119.1911 57.907,-114.1912 57.9071,-119.1912 57.9071,-119.1912 57.9071,-119.1912 57.907,-114.1912 53.4071,-119.1912 57.907,-109.1912 57.907,-109.1912"/>
<text text-anchor="middle" x="78.745" y="-130" font-family="Helvetica,sans-Serif" font-size="10.00" fill="#000000">[success]</text>
</g>
<!-- A5 -->
<g id="node6" class="node">
<title>A5</title>
<path fill="none" stroke="#000000" d="M133.0411,-36C133.0411,-36 92.7729,-36 92.7729,-36 86.7729,-36 80.7729,-30 80.7729,-24 80.7729,-24 80.7729,-12 80.7729,-12 80.7729,-6 86.7729,0 92.7729,0 92.7729,0 133.0411,0 133.0411,0 139.0411,0 145.0411,-6 145.0411,-12 145.0411,-12 145.0411,-24 145.0411,-24 145.0411,-30 139.0411,-36 133.0411,-36"/>
<text text-anchor="middle" x="112.907" y="-15" font-family="Helvetica,sans-Serif" font-size="10.00" fill="#000000">{accpet}</text>
</g>
<!-- A4&#45;&gt;A5 -->
<g id="edge5" class="edge">
<title>A4&#45;&gt;A5</title>
<path fill="none" stroke="#000000" d="M71.5025,-72.9551C78.0471,-64.2686 86.0174,-53.6898 93.211,-44.142"/>
<polygon fill="#000000" stroke="#000000" points="99.2773,-36.0904 96.8538,-46.7851 96.2685,-40.0838 93.2597,-44.0772 93.2597,-44.0772 93.2597,-44.0772 96.2685,-40.0838 89.6657,-41.3693 99.2773,-36.0904 99.2773,-36.0904"/>
</g>
<!-- A6 -->
<g id="node7" class="node">
<title>A6</title>
<path fill="none" stroke="#000000" d="M199.0331,-277C199.0331,-277 138.7809,-277 138.7809,-277 132.7809,-277 126.7809,-271 126.7809,-265 126.7809,-265 126.7809,-253 126.7809,-253 126.7809,-247 132.7809,-241 138.7809,-241 138.7809,-241 199.0331,-241 199.0331,-241 205.0331,-241 211.0331,-247 211.0331,-253 211.0331,-253 211.0331,-265 211.0331,-265 211.0331,-271 205.0331,-277 199.0331,-277"/>
<text text-anchor="middle" x="168.907" y="-256" font-family="Helvetica,sans-Serif" font-size="10.00" fill="#000000">{Client Start}</text>
</g>
<!-- A7 -->
<g id="node8" class="node">
<title>A7</title>
<path fill="none" stroke="#000000" d="M200.2577,-193C200.2577,-193 137.5563,-193 137.5563,-193 131.5563,-193 125.5563,-187 125.5563,-181 125.5563,-181 125.5563,-169 125.5563,-169 125.5563,-163 131.5563,-157 137.5563,-157 137.5563,-157 200.2577,-157 200.2577,-157 206.2577,-157 212.2577,-163 212.2577,-169 212.2577,-169 212.2577,-181 212.2577,-181 212.2577,-187 206.2577,-193 200.2577,-193"/>
<text text-anchor="middle" x="168.907" y="-178" font-family="Helvetica,sans-Serif" font-size="10.00" fill="#000000">{client socket</text>
<text text-anchor="middle" x="168.907" y="-166" font-family="Helvetica,sans-Serif" font-size="10.00" fill="#000000">create}</text>
</g>
<!-- A6&#45;&gt;A7 -->
<g id="edge6" class="edge">
<title>A6&#45;&gt;A7</title>
<path fill="none" stroke="#000000" d="M168.907,-240.7733C168.907,-229.8758 168.907,-215.7946 168.907,-203.4587"/>
<polygon fill="#000000" stroke="#000000" points="168.907,-193.1912 173.4071,-203.1911 168.907,-198.1912 168.9071,-203.1912 168.9071,-203.1912 168.9071,-203.1912 168.907,-198.1912 164.4071,-203.1912 168.907,-193.1912 168.907,-193.1912"/>
</g>
<!-- A8 -->
<g id="node9" class="node">
<title>A8</title>
<path fill="none" stroke="#000000" d="M191.6007,-109C191.6007,-109 146.2133,-109 146.2133,-109 140.2133,-109 134.2133,-103 134.2133,-97 134.2133,-97 134.2133,-85 134.2133,-85 134.2133,-79 140.2133,-73 146.2133,-73 146.2133,-73 191.6007,-73 191.6007,-73 197.6007,-73 203.6007,-79 203.6007,-85 203.6007,-85 203.6007,-97 203.6007,-97 203.6007,-103 197.6007,-109 191.6007,-109"/>
<text text-anchor="middle" x="168.907" y="-88" font-family="Helvetica,sans-Serif" font-size="10.00" fill="#000000">{connect}</text>
</g>
<!-- A7&#45;&gt;A8 -->
<g id="edge7" class="edge">
<title>A7&#45;&gt;A8</title>
<path fill="none" stroke="#000000" d="M168.907,-156.7733C168.907,-145.8758 168.907,-131.7946 168.907,-119.4587"/>
<polygon fill="#000000" stroke="#000000" points="168.907,-109.1912 173.4071,-119.1911 168.907,-114.1912 168.9071,-119.1912 168.9071,-119.1912 168.9071,-119.1912 168.907,-114.1912 164.4071,-119.1912 168.907,-109.1912 168.907,-109.1912"/>
</g>
<!-- A8&#45;&gt;A5 -->
<g id="edge8" class="edge">
<title>A8&#45;&gt;A5</title>
<path fill="none" stroke="#000000" d="M155.0643,-72.9551C148.4008,-64.2686 140.2855,-53.6898 132.9611,-44.142"/>
<polygon fill="#000000" stroke="#000000" points="126.7845,-36.0904 136.4416,-41.2857 129.8279,-40.0575 132.8712,-44.0247 132.8712,-44.0247 132.8712,-44.0247 129.8279,-40.0575 129.3007,-46.7637 126.7845,-36.0904 126.7845,-36.0904"/>
</g>
</g>
</svg>
